<svg xmlns="http://www.w3.org/2000/svg" width="24" height="24" viewBox="0 0 24 24"><defs><style>.a{fill:none;}</style></defs><path class="a" d="M0,0H24V24H0Z"/><path d="M12,22A10,10,0,0,1,12,2c5.51,0,10,4.04,10,9a6,6,0,0,1-6,6H14.23a.5.5,0,0,0-.5.5.528.528,0,0,0,.13.33,2.544,2.544,0,0,1,.64,1.67A2.5,2.5,0,0,1,12,22ZM12,4a8,8,0,0,0,0,16,.5.5,0,0,0,.5-.5.541.541,0,0,0-.14-.35A2.493,2.493,0,0,1,14.23,15H16a4,4,0,0,0,4-4C20,7.14,16.41,4,12,4Z"/><circle cx="1.5" cy="1.5" r="1.5" transform="translate(5 10)"/><circle cx="1.5" cy="1.5" r="1.5" transform="translate(8 6)"/><circle cx="1.5" cy="1.5" r="1.5" transform="translate(13 6)"/><circle cx="1.5" cy="1.5" r="1.5" transform="translate(16 10)"/></svg>