<svg xmlns="http://www.w3.org/2000/svg" width="120" height="96" viewBox="0 0 120 96"><defs><style>.a{fill:#fff;}.b{fill:none;}</style></defs><g transform="translate(0 -704)"><path class="a" d="M0,0H120V96H0Z" transform="translate(0 704)"/><path class="b" d="M0,0H74.546V74.546H0Z" transform="translate(22.637 715)"/><path class="b" d="M0,0H48V48H0Z" transform="translate(36 728)"/><path d="M12.515,9.126l-3.6-3.578L6.1,8.367l3.579,3.578ZM1,20.442H7v4H1ZM20.992.55h4v5.9h-4ZM37.066,5.538,39.88,8.351,36.3,11.929,33.489,9.114Zm-3.6,30.217,3.579,3.6,2.819-2.819-3.6-3.578Zm5.518-15.314h6v4h-6Zm-15.994-10a11.995,11.995,0,1,0,12,11.995A12,12,0,0,0,22.991,10.446Zm0,19.992a8,8,0,1,1,8-8A7.995,7.995,0,0,1,22.991,30.437Zm-2,8h4v5.9h-4ZM6.1,36.515l2.819,2.819,3.579-3.6L9.677,32.916Z" transform="translate(37.009 728.555)"/></g></svg>