<?xml version="1.0" encoding="utf-8"?>
<!-- Generator: Adobe Illustrator 23.0.3, SVG Export Plug-In . SVG Version: 6.00 Build 0)  -->
<svg version="1.1" id="圖層_1" xmlns="http://www.w3.org/2000/svg" xmlns:xlink="http://www.w3.org/1999/xlink" x="0px" y="0px"
	 viewBox="0 0 6.4 2.2" style="enable-background:new 0 0 6.4 2.2;" xml:space="preserve">
<style type="text/css">
	.st0{fill:#B2B2B2;}
</style>
<title>do_more</title>
<g id="圖層_1-2">
	<circle class="st0" cx="1.4" cy="1.1" r="0.7"/>
	<path class="st0" d="M1.4,0.4C1.8,0.4,2,0.7,2,1.1S1.8,1.7,1.4,1.7S0.7,1.5,0.7,1.1C0.7,0.7,1,0.4,1.4,0.4 M1.4,0.3L1.4,0.3
		C1,0.3,0.6,0.7,0.6,1.1S1,1.8,1.4,1.8l0,0c0.4,0,0.8-0.3,0.8-0.8S1.8,0.3,1.4,0.3z"/>
	<circle class="st0" cx="3.2" cy="1.1" r="0.7"/>
	<path class="st0" d="M3.2,0.4c0.4,0,0.7,0.3,0.7,0.6S3.6,1.7,3.2,1.7S2.5,1.5,2.5,1.1C2.5,0.7,2.8,0.4,3.2,0.4 M3.2,0.3L3.2,0.3
		c-0.4,0-0.8,0.3-0.8,0.8s0.3,0.8,0.8,0.8l0,0c0.4,0,0.8-0.3,0.8-0.8S3.6,0.3,3.2,0.3z"/>
	<circle class="st0" cx="5" cy="1.1" r="0.7"/>
	<path class="st0" d="M5,0.4c0.4,0,0.7,0.3,0.7,0.6S5.4,1.7,5,1.7c-0.4,0-0.7-0.3-0.7-0.6C4.3,0.7,4.6,0.4,5,0.4 M5,0.3L5,0.3
		c-0.4,0-0.8,0.3-0.8,0.8S4.6,1.8,5,1.8l0,0c0.4,0,0.8-0.3,0.8-0.8S5.4,0.3,5,0.3z"/>
</g>
</svg>
