<svg xmlns="http://www.w3.org/2000/svg" width="19.527" height="18.949" viewBox="0 0 19.527 18.949"><g transform="translate(-0.048 -6.327)"><path d="M19.336,13.492,12.407,6.563a.825.825,0,0,0-1.155,0l-8.08,8.08a.879.879,0,0,0-.235.7c.218,1.525.219,3.938-.346,4.5L.282,22.152A.825.825,0,0,0,.439,23.43l2.887,1.732a.825.825,0,0,0,1-.122l1.732-1.732c.533-.533,2.753-.595,4.5-.346a.827.827,0,0,0,.693-.231l8.084-8.084a.817.817,0,0,0,0-1.155ZM3.62,23.434l-1.444-.866.993-.993L4.323,22.73Zm1.968-1.749L4.214,20.31a7.327,7.327,0,0,0,.5-2.965l3.839,3.84h0a7.319,7.319,0,0,0-2.961.5ZM10.675,21,4.9,15.224,11.83,8.3,17.6,14.069Z" transform="translate(0)"/><path d="M0,0H6.532V1.633H0Z" transform="translate(7.209 15.224) rotate(-45)"/><path d="M0,0H6.532V1.633H0Z" transform="translate(9.518 17.533) rotate(-45)"/></g></svg>