<svg xmlns="http://www.w3.org/2000/svg" width="120" height="96" viewBox="0 0 120 96"><defs><style>.a{fill:#838383;}.b{fill:#fff;}.c{fill:none;}</style></defs><g transform="translate(-892 -164.289)"><path class="a" d="M0,0H120V96H0Z" transform="translate(892 164.289)"/><g transform="translate(928 188.289)"><path class="b" d="M15.186,2A20.666,20.666,0,0,0,5,4.69,19.808,19.808,0,0,1,15.186,21.926,19.808,19.808,0,0,1,5,39.161a20.666,20.666,0,0,0,10.186,2.69A20.16,20.16,0,0,0,35.557,21.926,20.16,20.16,0,0,0,15.186,2Z" transform="translate(4.69 2.074)"/><path class="c" d="M0,0H48V48H0Z"/></g></g></svg>