<svg xmlns="http://www.w3.org/2000/svg" viewBox="0 0 23 23"><defs><style>.cls-1{fill:none;}.cls-2{fill:#fff;}</style></defs><title>note-white</title><g id="圖層_2" data-name="圖層 2"><g id="圖層_1-2" data-name="圖層 1"><path class="cls-1" d="M0,0H23V23H0Z"/><path class="cls-2" d="M10.56,6.78h5.66V8.67H10.56Zm0,3.78h5.66v1.88H10.56Zm0,3.77h5.66v1.89H10.56ZM6.78,6.78H8.67V8.67H6.78Zm0,3.78H8.67v1.88H6.78Zm0,3.77H8.67v1.89H6.78ZM19.15,3H3.85A.84.84,0,0,0,3,3.84H3v15.3a.91.91,0,0,0,.85.85h15.3a1,1,0,0,0,.85-.85V3.85A.91.91,0,0,0,19.15,3Zm-1,15.11H4.89V4.89H18.11Z"/></g></g></svg>